<?xml version="1.0" standalone="no"?>
<!DOCTYPE svg PUBLIC "-//W3C//DTD SVG 20010904//EN"
 "http://www.w3.org/TR/2001/REC-SVG-20010904/DTD/svg10.dtd">
<svg version="1.0" xmlns="http://www.w3.org/2000/svg"
 width="700.000000pt" height="700.000000pt" viewBox="0 0 700.000000 700.000000"
 preserveAspectRatio="xMidYMid meet">
<metadata>
Created by potrace 1.14, written by Peter Selinger 2001-2017
</metadata>
<g transform="translate(0.000000,700.000000) scale(0.100000,-0.100000)"
fill="#000000" stroke="none">
<path d="M3618 5595 c-2 -1 -23 -5 -48 -8 -25 -4 -54 -8 -65 -11 -11 -2 -42
-9 -69 -15 -161 -37 -376 -151 -529 -281 -10 -8 -21 -15 -25 -15 -4 0 -7 54
-7 120 l0 120 -493 3 -492 2 0 -2055 0 -2055 492 2 492 3 2 755 c1 415 2 756
3 758 0 2 25 -16 54 -41 117 -98 269 -184 413 -233 385 -130 795 -68 1134 171
128 90 242 209 367 381 30 40 112 198 147 282 23 53 48 133 61 195 2 9 6 21 9
25 2 4 7 25 10 47 4 22 12 77 20 122 21 131 18 341 -8 503 -21 131 -83 322
-146 445 -213 421 -574 699 -1001 771 -36 6 -315 14 -321 9z m-15 -870 c217
-45 404 -226 472 -460 26 -87 27 -242 4 -335 -59 -234 -238 -417 -464 -475
-62 -16 -170 -20 -240 -9 -57 9 -162 50 -215 84 -84 54 -220 218 -220 265 0 7
-4 16 -9 19 -10 7 -38 105 -47 171 -43 299 102 587 352 702 103 47 250 62 367
38z"/>
</g>
</svg>
